<?xml version="1.0" encoding="UTF-8"?>
<svg width="35px" height="35px" viewBox="0 0 35 35" version="1.1" xmlns="http://www.w3.org/2000/svg" xmlns:xlink="http://www.w3.org/1999/xlink">
    <!-- Generator: Sketch 50 (54983) - http://www.bohemiancoding.com/sketch -->
    <title>linkedin-in</title>
    <desc>Created with Sketch.</desc>
    <defs></defs>
    <g id="Page-1" stroke="none" stroke-width="1" fill="none" fill-rule="evenodd">
        <g id="Home/Blog" transform="translate(-176.000000, -794.000000)" fill="#8DB5EA" fill-rule="nonzero">
            <g id="Nav">
                <g id="linkedin-in" transform="translate(176.000000, 794.000000)">
                    <path d="M7.8341888,34.9921892 L0.577995983,34.9921892 L0.577995983,11.6302165 L7.8341888,11.6302165 L7.8341888,34.9921892 Z M4.20218701,8.44342781 C1.88239232,8.44342781 0,6.5219817 0,4.20218701 C0,1.88239232 1.88239232,0 4.20218701,0 C6.5219817,0 8.40437402,1.88239232 8.40437402,4.20218701 C8.40437402,6.5219817 6.5219817,8.44342781 4.20218701,8.44342781 Z M34.9921892,34.9921892 L27.7516179,34.9921892 L27.7516179,23.6197277 C27.7516179,20.9093952 27.6969426,17.4336086 23.9790225,17.4336086 C20.2064271,17.4336086 19.6284312,20.3782638 19.6284312,23.4244588 L19.6284312,34.9921892 L12.3800491,34.9921892 L12.3800491,11.6302165 L19.3394332,11.6302165 L19.3394332,14.8170051 L19.440973,14.8170051 C20.4095068,12.9814773 22.776166,11.0444097 26.306628,11.0444097 C33.6487391,11.0444097 35,15.879268 35,22.1591163 L35,34.9921892 L34.9921892,34.9921892 Z" id="Shape"></path>
                </g>
            </g>
        </g>
    </g>
</svg>