<?xml version="1.0" encoding="UTF-8"?>
<svg width="35px" height="35px" viewBox="0 0 35 35" version="1.1" xmlns="http://www.w3.org/2000/svg" xmlns:xlink="http://www.w3.org/1999/xlink">
    <!-- Generator: Sketch 50 (54983) - http://www.bohemiancoding.com/sketch -->
    <title>medium</title>
    <desc>Created with Sketch.</desc>
    <defs></defs>
    <g id="Page-1" stroke="none" stroke-width="1" fill="none" fill-rule="evenodd">
        <g id="Home/Blog" transform="translate(-62.000000, -794.000000)" fill="#8DB5EA" fill-rule="nonzero">
            <g id="Nav">
                <g id="medium" transform="translate(62.000000, 794.000000)">
                    <path d="M0,0 L0,35 L35,35 L35,0 L0,0 Z M29.078125,8.2890625 L27.203125,10.0859375 C27.0390625,10.2109375 26.9609375,10.4140625 26.9921875,10.609375 L26.9921875,23.8359375 C26.9609375,24.0390625 27.0390625,24.2421875 27.203125,24.359375 L29.0390625,26.15625 L29.0390625,26.5546875 L19.8203125,26.5546875 L19.8203125,26.171875 L21.71875,24.328125 C21.90625,24.140625 21.90625,24.0859375 21.90625,23.8046875 L21.90625,13.109375 L16.625,26.515625 L15.9140625,26.515625 L9.765625,13.109375 L9.765625,22.09375 C9.7109375,22.46875 9.84375,22.8515625 10.109375,23.125 L12.578125,26.1171875 L12.578125,26.515625 L5.5625,26.515625 L5.5625,26.1171875 L8.03125,23.125 C8.296875,22.8515625 8.4140625,22.46875 8.3515625,22.09375 L8.3515625,11.703125 C8.3828125,11.4140625 8.2734375,11.1328125 8.0546875,10.9375 L5.859375,8.2890625 L5.859375,7.890625 L12.6796875,7.890625 L17.9453125,19.453125 L22.578125,7.8984375 L29.078125,7.8984375 L29.078125,8.2890625 Z" id="Shape"></path>
                </g>
            </g>
        </g>
    </g>
</svg>